<svg width="200" height="200" xmlns="http://www.w3.org/2000/svg">
  <!-- 背景圆形 -->
  <circle cx="100" cy="100" r="90" fill="#FFCC80" />
  <circle cx="100" cy="100" r="80" fill="#FFE0B2" />
  
  <!-- 热带水果图标 -->
  <!-- 菠萝 -->
  <g transform="translate(100, 100) scale(0.6)">
    <path d="M 0 -60 L 20 -80 L 0 -100 L -20 -80 Z" fill="#4CAF50" />
    <path d="M 0 -60 L 15 -75 L 0 -90 L -15 -75 Z" fill="#66BB6A" />
    <ellipse cx="0" cy="0" rx="60" ry="70" fill="#FFC107" />
    <ellipse cx="0" cy="0" rx="50" ry="60" fill="#FFD54F" />
    
    <!-- 菠萝纹理 -->
    <path d="M -40 -30 L 40 -30" stroke="#FFA000" stroke-width="2" />
    <path d="M -45 -15 L 45 -15" stroke="#FFA000" stroke-width="2" />
    <path d="M -48 0 L 48 0" stroke="#FFA000" stroke-width="2" />
    <path d="M -45 15 L 45 15" stroke="#FFA000" stroke-width="2" />
    <path d="M -40 30 L 40 30" stroke="#FFA000" stroke-width="2" />
    <path d="M -30 45 L 30 45" stroke="#FFA000" stroke-width="2" />
    
    <!-- 菠萝点 -->
    <circle cx="-30" cy="-22" r="3" fill="#FFA000" />
    <circle cx="-15" cy="-22" r="3" fill="#FFA000" />
    <circle cx="0" cy="-22" r="3" fill="#FFA000" />
    <circle cx="15" cy="-22" r="3" fill="#FFA000" />
    <circle cx="30" cy="-22" r="3" fill="#FFA000" />
    
    <circle cx="-35" cy="-7" r="3" fill="#FFA000" />
    <circle cx="-20" cy="-7" r="3" fill="#FFA000" />
    <circle cx="-5" cy="-7" r="3" fill="#FFA000" />
    <circle cx="10" cy="-7" r="3" fill="#FFA000" />
    <circle cx="25" cy="-7" r="3" fill="#FFA000" />
    <circle cx="40" cy="-7" r="3" fill="#FFA000" />
    
    <circle cx="-40" cy="8" r="3" fill="#FFA000" />
    <circle cx="-25" cy="8" r="3" fill="#FFA000" />
    <circle cx="-10" cy="8" r="3" fill="#FFA000" />
    <circle cx="5" cy="8" r="3" fill="#FFA000" />
    <circle cx="20" cy="8" r="3" fill="#FFA000" />
    <circle cx="35" cy="8" r="3" fill="#FFA000" />
    
    <circle cx="-35" cy="23" r="3" fill="#FFA000" />
    <circle cx="-20" cy="23" r="3" fill="#FFA000" />
    <circle cx="-5" cy="23" r="3" fill="#FFA000" />
    <circle cx="10" cy="23" r="3" fill="#FFA000" />
    <circle cx="25" cy="23" r="3" fill="#FFA000" />
    <circle cx="40" cy="23" r="3" fill="#FFA000" />
    
    <circle cx="-25" cy="38" r="3" fill="#FFA000" />
    <circle cx="-10" cy="38" r="3" fill="#FFA000" />
    <circle cx="5" cy="38" r="3" fill="#FFA000" />
    <circle cx="20" cy="38" r="3" fill="#FFA000" />
  </g>
  
  <!-- 文字 -->
  <text x="100" y="170" text-anchor="middle" font-family="Arial, sans-serif" font-size="16" font-weight="bold" fill="#795548">热带水果</text>
</svg>